Coordinates
version=1
nRows=16
nColumns=22
inDegrees=yes

Units are S.I. units (second, meters, Newtons, ...)
If the header above contains a line with 'inDegrees', this indicates whether rotational values are in degrees (yes) or radians (no).

endheader
time	pelvis_tilt	pelvis_list	pelvis_rotation	pelvis_tx	pelvis_ty	pelvis_tz	hip_flexion_r	hip_adduction_r	hip_rotation_r	knee_angle_r	ankle_angle_r	subtalar_angle_r	hip_flexion_l	hip_adduction_l	hip_rotation_l	knee_angle_l	ankle_angle_l	subtalar_angle_l	lumbar_extension	lumbar_bending	lumbar_rotation
      3.62000000	     -9.74860668	      3.31938446	    -47.84781448	     -0.14550008	      0.86281876	      0.16312297	     -9.18430806	     -0.85042768	     16.60111390	    -17.66940463	      4.02749040	      6.16287276	     31.11892774	     -9.05250732	     -1.96765514	    -22.97185456	      5.45704647	      1.53438505	      2.60095914	      1.69470132	     18.20921278
      3.63000000	     -9.93557008	      3.34838598	    -47.77202561	     -0.13849967	      0.86404843	      0.16583939	     -8.73758830	     -0.77197970	     16.52966692	    -18.64534933	      2.58329909	      6.50972448	     30.74483446	     -8.91557284	     -1.99371840	    -22.90663049	      5.92193007	      1.26847617	      2.79849968	      1.73076542	     18.14333323
      3.64000000	    -10.10271917	      3.37088532	    -47.67647816	     -0.13153626	      0.86524894	      0.16855400	     -8.25366101	     -0.68720612	     16.39710989	    -19.70569477	      1.15431730	      6.79420261	     30.35550641	     -8.76735263	     -2.01036942	    -22.83560954	      6.37503842	      1.05836362	      2.98319636	      1.75799033	     18.04357198
      3.65000000	    -10.25986617	      3.37032668	    -47.56642759	     -0.12466732	      0.86638851	      0.17119708	     -7.69540436	     -0.57243203	     16.20759148	    -20.92481783	     -0.19679996	      7.13747531	     29.96705151	     -8.61922076	     -1.95228913	    -22.79036977	      6.83866403	      0.81631976	      3.13600256	      1.79591917	     17.96176118
      3.66000000	    -10.39249130	      3.35646348	    -47.44913624	     -0.11783170	      0.86748237	      0.17381180	     -7.08693741	     -0.45501879	     15.96585158	    -22.26085320	     -1.51421109	      7.43422081	     29.55024260	     -8.46238004	     -1.89542029	    -22.73344580	      7.29540639	      0.62321532	      3.26191910	      1.83403868	     17.86113258
      3.67000000	    -10.50064315	      3.32646906	    -47.33365446	     -0.11107399	      0.86850954	      0.17637497	     -6.40350672	     -0.33159632	     15.67023603	    -23.75766097	     -2.77314663	      7.72630931	     29.11131450	     -8.30144413	     -1.83518855	    -22.67891510	      7.75635104	      0.43536020	      3.35274458	      1.87229517	     17.76699764
      3.68000000	    -10.57378617	      3.28540998	    -47.22715855	     -0.10438276	      0.86947821	      0.17890116	     -5.64754493	     -0.22021748	     15.30926379	    -25.41203227	     -4.00301523	      7.97835959	     28.63325580	     -8.12960551	     -1.80116526	    -22.61031618	      8.22262635	      0.26571003	      3.40574215	      1.89978649	     17.67544487
      3.69000000	    -10.62529866	      3.24084352	    -47.12998612	     -0.09781580	      0.87034294	      0.18130586	     -4.77539803	     -0.11574284	     14.88756176	    -27.26549741	     -5.17867730	      8.23250492	     28.15121837	     -7.94394123	     -1.74974259	    -22.55237171	      8.68254604	      0.05445412	      3.42380151	      1.92398750	     17.62130945
      3.70000000	    -10.62901975	      3.20920019	    -47.04588254	     -0.09130408	      0.87113948	      0.18366955	     -3.81658705	     -0.06633018	     14.36827486	    -29.27180338	     -6.34907159	      8.42442046	     27.61608409	     -7.72405914	     -1.76499261	    -22.44125680	      9.13671391	     -0.13676739	      3.41549719	      1.91096007	     17.55830808
      3.71000000	    -10.59251220	      3.19574069	    -46.97393368	     -0.08489286	      0.87184180	      0.18592415	     -2.74927674	     -0.07416522	     13.76299238	    -31.43951511	     -7.49145046	      8.58743904	     27.06257522	     -7.46380399	     -1.80392733	    -22.31786749	      9.58020956	     -0.35844301	      3.38066071	      1.86404280	     17.51736720
      3.72000000	    -10.50563537	      3.20906824	    -46.91195262	     -0.07855370	      0.87245817	      0.18808241	     -1.58931944	     -0.16679790	     13.06792745	    -33.73456706	     -8.60248556	      8.72217896	     26.47340787	     -7.15058052	     -1.88909183	    -22.15203169	     10.00577704	     -0.59233793	      3.32161790	      1.76913148	     17.47967120
      3.73000000	    -10.37025899	      3.26225688	    -46.85809476	     -0.07228933	      0.87297743	      0.19014074	     -0.33564430	     -0.36106795	     12.29517278	    -36.12713922	     -9.64038836	      8.83955922	     25.86695668	     -6.77361142	     -2.00600973	    -21.95797713	     10.41606331	     -0.86400157	      3.25337808	      1.61789565	     17.44274658
      3.74000000	    -10.18516570	      3.35163336	    -46.80712807	     -0.06606849	      0.87341899	      0.19210750	      0.98374403	     -0.66491008	     11.45717930	    -38.56701489	    -10.55044121	      8.95532926	     25.23328967	     -6.33123689	     -2.15513108	    -21.72017410	     10.79862741	     -1.14760642	      3.17478662	      1.41292308	     17.39532523
      3.75000000	     -9.95533770	      3.46829270	    -46.74827828	     -0.05987102	      0.87379937	      0.19397698	      2.34012566	     -1.06956682	     10.58083261	    -41.00097610	    -11.25699190	      9.08400037	     24.57947546	     -5.82793009	     -2.31487956	    -21.45309795	     11.15639544	     -1.42632050	      3.08447795	      1.16810898	     17.32625894
      3.76000000	     -9.71904060	      3.61203217	    -46.67779631	     -0.05371427	      0.87408189	      0.19578138	      3.73940966	     -1.53208259	      9.71570358	    -43.39135027	    -11.64877948	      9.20772337	     23.94671740	     -5.29322290	     -2.46324454	    -21.18033669	     11.53702943	     -1.91105234	      3.01680078	      0.90974912	     17.23069811
      3.77000000	     -9.42909172	      3.73939851	    -46.56153776	     -0.04748756	      0.87440635	      0.19749533	      5.07216690	     -2.06467273	      8.83239169	    -45.66292637	    -11.68379394	      9.33891470	     23.25648020	     -4.70653709	     -2.56486269	    -20.87355546	     11.83365513	     -2.07941311	      2.89856193	      0.63751542	     17.07218262
